<?xml version="1.0" standalone="no"?>
<!DOCTYPE svg PUBLIC "-//W3C//DTD SVG 1.1//EN" "http://www.w3.org/Graphics/SVG/1.1/DTD/svg11.dtd" >
<svg xmlns="http://www.w3.org/2000/svg">
<metadata></metadata>
<defs>
<font id="firstaptstrongmedium" horiz-adv-x="512" >
<font-face units-per-em="2048" ascent="1638" descent="-410" />
<missing-glyph horiz-adv-x="320" />
<glyph horiz-adv-x="2048" />
<glyph horiz-adv-x="2048" />
<glyph unicode="&#xd;" horiz-adv-x="341" />
<glyph unicode=" "  horiz-adv-x="320" />
<glyph unicode="&#x09;" horiz-adv-x="320" />
<glyph unicode="&#xa0;" horiz-adv-x="320" />
<glyph unicode="!" horiz-adv-x="384" d="M0 0v128v128h128h128v-128v-128h-128h-128zM0 384v128v128v128v128v128v128v128v128h128h128v-128v-128v-128v-128v-128v-128v-128v-128h-128h-128z" />
<glyph unicode="&#x22;" horiz-adv-x="768" d="M0 1025v128v128v128h128h128v-128v-128v-128h-128h-128zM384 1025v128v128v128h128h128v-128v-128v-128h-128h-128z" />
<glyph unicode="#" horiz-adv-x="576" d="M0 192v64v64h64v64v64h-64v64v64h64v64h64h64v-64h64h64v64h64h64v-64h64v-64v-64h-64v-64v-64h64v-64v-64h-64v-64h-64h-64v64h-64h-64v-64h-64h-64v64h-64zM192 320h64h64v64v64h-64h-64v-64v-64z" />
<glyph unicode="$" d="M0 0v64v64h64h64h64v64v64h-64h-64v64h-64v64v64v64v64v64h64v64h64h64v64h64v-64h64h64h64v-64v-64h-64h-64h-64v-64v-64v-64h64h64v-64h64v-64v-64v-64v-64h-64v-64h-64h-64v-64h-64v64h-64h-64h-64zM128 384h64v64v64v64h-64v-64v-64v-64zM256 128h64v64v64h-64v-64 v-64z" />
<glyph unicode="%" horiz-adv-x="448" d="M0 0v64v64v64h64v64v64h64v64v64h64v64v64h64v64v64h64h64v-64v-64v-64h-64v-64v-64h-64v-64v-64h-64v-64v-64h-64v-64v-64h-64h-64zM0 576v64v64h64h64v-64v-64h-64h-64zM256 0v64v64h64h64v-64v-64h-64h-64z" />
<glyph unicode="'" horiz-adv-x="192" d="M0 512v64v64v64h64h64v-64v-64v-64h-64h-64z" />
<glyph unicode="(" horiz-adv-x="320" d="M0 64v64v64v64v64v64v64v64v64h64v64h64v64h64h64v-64v-64h-64v-64h-64v-64v-64v-64v-64v-64v-64h64v-64h64v-64v-64h-64h-64v64h-64v64h-64z" />
<glyph unicode=")" horiz-adv-x="320" d="M0 0v64h64v64h64v64v64v64v64v64v64h-64v64h-64v64v64h64h64v-64h64v-64h64v-64v-64v-64v-64v-64v-64v-64v-64h-64v-64h-64v-64h-64h-64v64z" />
<glyph unicode="*" horiz-adv-x="384" d="M0 320v64v64h64v64h-64v64v64h64h64v-64h64v64h64h64v-64v-64h-64v-64h64v-64v-64h-64h-64v64h-64v-64h-64h-64z" />
<glyph unicode="+" horiz-adv-x="448" d="M0 256v64v64h64h64v64v64h64h64v-64v-64h64h64v-64v-64h-64h-64v-64v-64h-64h-64v64v64h-64h-64z" />
<glyph unicode="," horiz-adv-x="192" d="M0 0v64v64h64h64v-64v-64v-64h-64h-64v64z" />
<glyph unicode="-" horiz-adv-x="256" d="M0 192v64v64h64h64h64v-64v-64h-64h-64h-64z" />
<glyph unicode="." horiz-adv-x="384" d="M0 0v128v128h128h128v-128v-128h-128h-128z" />
<glyph unicode="/" horiz-adv-x="448" d="M0 0v64v64v64h64v64v64h64v64v64h64v64v64h64v64v64h64h64v-64v-64v-64h-64v-64v-64h-64v-64v-64h-64v-64v-64h-64v-64v-64h-64h-64z" />
<glyph unicode="0" d="M0 64v64v64v64v64v64v64v64v64v64h64v64h64h64h64h64h64v-64h64v-64v-64v-64v-64v-64v-64v-64v-64v-64h-64v-64h-64h-64h-64h-64h-64v64h-64zM128 128h64h64h64v64v64v64v64v64v64v64h-64h-64h-64v-64v-64v-64v-64v-64v-64v-64z" />
<glyph unicode="1" horiz-adv-x="256" d="M0 576v64v64h64h64h64v-64v-64v-64v-64v-64v-64v-64v-64v-64v-64v-64h-64h-64v64v64v64v64v64v64v64v64v64h-64z" />
<glyph unicode="2" d="M0 0v64v64v64h64v64h64v64h64v64h64v64h64v64v64h-64h-64h-64v-64v-64h-64h-64v64v64v64h64v64h64h64h64h64h64v-64h64v-64v-64v-64v-64h-64v-64h-64v-64h-64v-64h-64v-64h64h64h64h64v-64v-64h-64h-64h-64h-64h-64h-64h-64z" />
<glyph unicode="3" d="M0 64v64v64h64h64v-64h64h64h64v64v64v64h-64h-64v64h64h64v64v64v64h-64h-64h-64v-64h-64h-64v64v64h64v64h64h64h64h64h64v-64h64v-64v-64v-64v-64h-64v-64h64v-64v-64v-64v-64h-64v-64h-64h-64h-64h-64h-64v64h-64z" />
<glyph unicode="4" horiz-adv-x="576" d="M0 256v64v64v64v64h64v64h64v64h64v64h64h64h64h64v-64v-64v-64v-64v-64h64v-64v-64h-64v-64v-64v-64v-64h-64h-64v64v64v64v64h-64h-64h-64h-64h-64zM128 384h64h64h64v64v64v64h-64v-64h-64v-64h-64v-64z" />
<glyph unicode="5" horiz-adv-x="448" d="M0 0v64v64h64h64h64h64v64v64h-64h-64h-64v64h-64v64v64v64v64v64v64h64h64h64h64h64h64v-64v-64h-64h-64h-64h-64v-64v-64v-64h64h64h64v-64h64v-64v-64v-64v-64v-64h-64h-64h-64h-64h-64h-64z" />
<glyph unicode="6" d="M0 64v64v64v64v64v64v64v64v64v64v64h64h64h64h64h64h64v-64h64v-64v-64h-64h-64v64h-64h-64h-64v-64v-64v-64h64h64h64h64v-64h64v-64v-64v-64v-64h-64v-64h-64h-64h-64h-64h-64v64h-64zM128 128h64h64h64v64v64h-64h-64h-64v-64v-64z" />
<glyph unicode="7" horiz-adv-x="448" d="M0 576v64v64h64h64h64h64h64v-64h64v-64v-64v-64v-64v-64v-64h-64v-64v-64h-64v-64v-64h-64h-64v64v64v64h64v64v64h64v64v64v64v64h-64h-64h-64h-64z" />
<glyph unicode="8" d="M0 64v64v64v64v64v64v64v64v64v64v64h64h64h64h64h64h64v-64h64v-64v-64v-64v-64v-64v-64v-64v-64v-64v-64h-64h-64h-64h-64h-64h-64v64h-64zM128 128h64h64h64v64v64h-64h-64h-64v-64v-64zM128 384h64h64h64v64v64v64h-64h-64h-64v-64v-64v-64z" />
<glyph unicode="9" d="M0 320v64v64v64v64v64v64h64h64h64h64h64h64v-64h64v-64v-64v-64v-64v-64v-64v-64v-64v-64v-64h-64h-64v64v64v64v64h-64h-64h-64h-64v64h-64zM128 384h64h64h64v64v64v64h-64h-64h-64v-64v-64v-64z" />
<glyph unicode=":" horiz-adv-x="192" d="M0 0v64v64h64h64v-64v-64h-64h-64zM0 320v64v64h64h64v-64v-64h-64h-64z" />
<glyph unicode=";" horiz-adv-x="192" d="M0 0v64v64h64h64v-64v-64v-64h-64h-64v64zM0 320v64v64h64h64v-64v-64h-64h-64z" />
<glyph unicode="&#x3c;" horiz-adv-x="320" d="M0 256v64v64v64h64v64h64v64h64h64v-64v-64h-64v-64h-64v-64h64v-64h64v-64v-64h-64h-64v64h-64v64h-64z" />
<glyph unicode="=" horiz-adv-x="320" d="M0 192v64v64h64h64h64h64v-64v-64h-64h-64h-64h-64zM0 384v64v64h64h64h64h64v-64v-64h-64h-64h-64h-64z" />
<glyph unicode="&#x3e;" horiz-adv-x="320" d="M0 128v64v64h64v64h64v64h-64v64h-64v64v64h64h64v-64h64v-64h64v-64v-64v-64h-64v-64h-64v-64h-64h-64z" />
<glyph unicode="?" d="M0 384v64v64v64h64v64h64h64h64h64h64v-64h64v-64v-64v-64v-64h-64v-64h-64v-64h-64h-64v64v64h64v64h64v64v64h-64h-64h-64v-64v-64h-64h-64zM192 0v64v64h64h64v-64v-64h-64h-64z" />
<glyph unicode="@" horiz-adv-x="896" d="M0 0v64v64v64v64v64v64v64v64h64v64h64v64h64h64h64h64h64h64h64h64h64v-64h64v-64h64v-64v-64v-64v-64v-64v-64v-64h-64v-64h-64h-64h-64v64h-64v-64h-64h-64h-64h-64v64h-64v64v64v64v64v64h64v64h64h64h64h64h64h64v64h-64h-64h-64h-64h-64h-64h-64v-64h-64v-64v-64 v-64v-64v-64v-64v-64h64v-64h64h64h64h64h64h64h64h64h64v-64v-64h-64h-64h-64h-64h-64h-64h-64h-64h-64h-64v64h-64v64h-64v64zM320 128h64h64h64v64v64v64h-64h-64h-64v-64v-64v-64zM640 128h64v64v64v64v64v64h-64v-64v-64v-64v-64v-64z" />
<glyph unicode="A" horiz-adv-x="1152" d="M0 0v128v128v128v128v128v128v128v128v128v128h128v128h128h128h128h128h128h128v-128h128v-128v-128v-128v-128v-128v-128v-128v-128v-128v-128h-128h-128v128v128v128v128h-128h-128h-128h-128v-128v-128v-128v-128h-128h-128zM256 768h128h128h128h128v128v128v128 h-128h-128h-128h-128v-128v-128v-128z" />
<glyph unicode="B" horiz-adv-x="1152" d="M0 0v128v128v128v128v128v128v128v128v128v128v128h128h128h128h128h128h128h128v-128h128v-128v-128v-128v-128h-128v-128h128v-128v-128v-128v-128h-128v-128h-128h-128h-128h-128h-128h-128h-128zM256 256h128h128h128h128v128v128h-128h-128h-128h-128v-128v-128z M256 768h128h128h128h128v128v128v128h-128h-128h-128h-128v-128v-128v-128z" />
<glyph unicode="C" horiz-adv-x="1152" d="M0 128v128v128v128v128v128v128v128v128v128h128v128h128h128h128h128h128h128v-128h128v-128v-128h-128h-128v128h-128h-128h-128h-128v-128v-128v-128v-128v-128v-128v-128h128h128h128h128v128h128h128v-128v-128h-128v-128h-128h-128h-128h-128h-128h-128v128h-128z " />
<glyph unicode="D" horiz-adv-x="1152" d="M0 0v128v128v128v128v128v128v128v128v128v128v128h128h128h128h128h128h128h128v-128h128v-128v-128v-128v-128v-128v-128v-128v-128v-128h-128v-128h-128h-128h-128h-128h-128h-128h-128zM256 256h128h128h128h128v128v128v128v128v128v128v128h-128h-128h-128h-128 v-128v-128v-128v-128v-128v-128v-128z" />
<glyph unicode="E" horiz-adv-x="896" d="M0 0v128v128v128v128v128v128v128v128v128v128h128v128h128h128h128h128h128v-128v-128h-128h-128h-128h-128v-128v-128v-128h128h128h128v-128v-128h-128h-128h-128v-128v-128h128h128h128h128v-128v-128h-128h-128h-128h-128h-128h-128z" />
<glyph unicode="F" horiz-adv-x="896" d="M0 0v128v128v128v128v128v128v128v128v128v128h128v128h128h128h128h128h128v-128v-128h-128h-128h-128h-128v-128v-128v-128h128h128v-128v-128h-128h-128v-128v-128v-128v-128h-128h-128z" />
<glyph unicode="G" horiz-adv-x="1152" d="M0 128v128v128v128v128v128v128v128v128v128h128v128h128h128h128h128h128h128v-128h128v-128v-128h-128h-128v128h-128h-128h-128h-128v-128v-128v-128v-128v-128v-128v-128h128h128h128h128v128v128h-128h-128v128v128h128h128h128h128v-128v-128v-128v-128v-128h-128 v-128h-128h-128h-128h-128h-128h-128v128h-128z" />
<glyph unicode="H" horiz-adv-x="1152" d="M0 0v128v128v128v128v128v128v128v128v128v128v128h128h128v-128v-128v-128v-128v-128h128h128h128h128v128v128v128v128v128h128h128v-128v-128v-128v-128v-128v-128v-128v-128v-128v-128v-128h-128h-128v128v128v128v128h-128h-128h-128h-128v-128v-128v-128v-128h-128 h-128z" />
<glyph unicode="I" horiz-adv-x="384" d="M0 0v128v128v128v128v128v128v128v128v128v128v128h128h128v-128v-128v-128v-128v-128v-128v-128v-128v-128v-128v-128h-128h-128z" />
<glyph unicode="J" horiz-adv-x="1152" d="M0 128v128v128h128h128v-128h128v128v128v128v128v128v128v128h-128h-128h-128v128v128h128h128h128h128h128h128h128h128v-128v-128h-128h-128h-128v-128v-128v-128v-128v-128v-128v-128v-128h-128v-128h-128h-128h-128v128h-128z" />
<glyph unicode="K" horiz-adv-x="1024" d="M0 0v128v128v128v128v128v128v128v128v128v128v128h128h128v-128v-128v-128v-128v-128h128v128h128v128v128h128v128v128h128h128v-128v-128v-128h-128v-128v-128h-128v-128h128v-128v-128h128v-128v-128v-128h-128h-128v128v128h-128v128v128h-128h-128v-128v-128v-128 v-128h-128h-128z" />
<glyph unicode="L" horiz-adv-x="896" d="M0 128v128v128v128v128v128v128v128v128v128v128h128h128v-128v-128v-128v-128v-128v-128v-128v-128v-128h128h128h128h128v-128v-128h-128h-128h-128h-128h-128v128h-128z" />
<glyph unicode="M" horiz-adv-x="1920" d="M0 0v128v128v128v128v128v128v128v128v128v128v128h128h128h128h128h128h128v-128h128h128v128h128h128h128h128h128v-128h128v-128v-128v-128v-128v-128v-128v-128v-128v-128v-128h-128h-128v128v128v128v128v128v128v128v128v128h-128h-128h-128h-128v-128v-128v-128 v-128v-128v-128v-128v-128v-128h-128h-128v128v128v128v128v128v128v128v128v128h-128h-128h-128h-128v-128v-128v-128v-128v-128v-128v-128v-128v-128h-128h-128z" />
<glyph unicode="N" horiz-adv-x="1152" d="M0 0v128v128v128v128v128v128v128v128v128v128v128h128h128h128h128h128h128h128v-128h128v-128v-128v-128v-128v-128v-128v-128v-128v-128v-128h-128h-128v128v128v128v128v128v128v128v128v128h-128h-128h-128h-128v-128v-128v-128v-128v-128v-128v-128v-128v-128h-128 h-128z" />
<glyph unicode="O" horiz-adv-x="1152" d="M0 128v128v128v128v128v128v128v128v128v128h128v128h128h128h128h128h128h128v-128h128v-128v-128v-128v-128v-128v-128v-128v-128v-128h-128v-128h-128h-128h-128h-128h-128h-128v128h-128zM256 256h128h128h128h128v128v128v128v128v128v128v128h-128h-128h-128h-128 v-128v-128v-128v-128v-128v-128v-128z" />
<glyph unicode="P" horiz-adv-x="1152" d="M0 0v128v128v128v128v128v128v128v128v128v128v128h128h128h128h128h128h128h128v-128h128v-128v-128v-128v-128v-128h-128v-128h-128h-128h-128h-128h-128v-128v-128v-128v-128h-128h-128zM256 768h128h128h128h128v128v128v128h-128h-128h-128h-128v-128v-128v-128z " />
<glyph unicode="Q" horiz-adv-x="1280" d="M0 128v128v128v128v128v128v128v128v128v128h128v128h128h128h128h128h128h128v-128h128v-128v-128v-128v-128v-128v-128v-128v-128h128v-128v-128h-128h-128h-128h-128h-128h-128h-128h-128v128h-128zM256 256h128h128h128h128v128v128v128v128v128v128v128h-128h-128 h-128h-128v-128v-128v-128v-128v-128v-128v-128z" />
<glyph unicode="R" horiz-adv-x="1152" d="M0 0v128v128v128v128v128v128v128v128v128v128v128h128h128h128h128h128h128h128v-128h128v-128v-128v-128v-128v-128h-128v-128h128v-128v-128v-128v-128h-128h-128v128v128v128v128h-128h-128h-128h-128v-128v-128v-128v-128h-128h-128zM256 768h128h128h128h128v128 v128v128h-128h-128h-128h-128v-128v-128v-128z" />
<glyph unicode="S" horiz-adv-x="1024" d="M0 0v128v128h128h128h128h128h128v128v128h-128h-128h-128h-128v128h-128v128v128v128v128v128h128v128h128h128h128h128h128h128v-128v-128h-128h-128h-128h-128h-128v-128v-128v-128h128h128h128h128v-128h128v-128v-128v-128v-128h-128v-128h-128h-128h-128h-128h-128 h-128z" />
<glyph unicode="T" horiz-adv-x="1152" d="M0 1152v128v128h128h128h128h128h128h128h128h128v-128v-128h-128h-128h-128v-128v-128v-128v-128v-128v-128v-128v-128v-128h-128h-128v128v128v128v128v128v128v128v128v128h-128h-128h-128z" />
<glyph unicode="U" horiz-adv-x="1152" d="M0 128v128v128v128v128v128v128v128v128v128v128h128h128v-128v-128v-128v-128v-128v-128v-128v-128v-128h128h128h128h128v128v128v128v128v128v128v128v128v128h128h128v-128v-128v-128v-128v-128v-128v-128v-128v-128v-128h-128v-128h-128h-128h-128h-128h-128h-128 v128h-128z" />
<glyph unicode="V" horiz-adv-x="1152" d="M0 256v128v128v128v128v128v128v128v128v128h128h128v-128v-128v-128v-128v-128v-128v-128v-128h128v-128h128h128v128h128v128v128v128v128v128v128v128v128h128h128v-128v-128v-128v-128v-128v-128v-128v-128v-128h-128v-128h-128v-128h-128h-128h-128h-128v128h-128 v128h-128z" />
<glyph unicode="W" horiz-adv-x="1920" d="M0 128v128v128v128v128v128v128v128v128v128v128h128h128v-128v-128v-128v-128v-128v-128v-128v-128v-128h128h128h128h128v128v128v128v128v128v128v128v128v128h128h128v-128v-128v-128v-128v-128v-128v-128v-128v-128h128h128h128h128v128v128v128v128v128v128v128 v128v128h128h128v-128v-128v-128v-128v-128v-128v-128v-128v-128v-128h-128v-128h-128h-128h-128h-128h-128v128h-128h-128v-128h-128h-128h-128h-128h-128v128h-128z" />
<glyph unicode="X" horiz-adv-x="1024" d="M0 0v128v128v128h128v128v128h128v128h-128v128v128h-128v128v128v128h128h128v-128v-128h128v-128v-128h128v128v128h128v128v128h128h128v-128v-128v-128h-128v-128v-128h-128v-128h128v-128v-128h128v-128v-128v-128h-128h-128v128v128h-128v128v128h-128v-128v-128 h-128v-128v-128h-128h-128z" />
<glyph unicode="Y" horiz-adv-x="1152" d="M0 768v128v128v128v128v128h128h128v-128v-128v-128v-128h128v-128h128h128v128h128v128v128v128v128h128h128v-128v-128v-128v-128v-128h-128v-128h-128v-128h-128v-128v-128v-128v-128h-128h-128v128v128v128v128h-128v128h-128v128h-128z" />
<glyph unicode="Z" horiz-adv-x="896" d="M0 0v128v128v128v128h128v128h128v128h128v128h128v128v128h-128h-128h-128h-128v128v128h128h128h128h128h128h128v-128v-128v-128v-128v-128h-128v-128h-128v-128h-128v-128h-128v-128h128h128h128h128v-128v-128h-128h-128h-128h-128h-128h-128z" />
<glyph unicode="[" horiz-adv-x="320" d="M0 0v64v64v64v64v64v64v64v64v64v64h64h64h64h64v-64v-64h-64h-64v-64v-64v-64v-64v-64v-64v-64v-64h64h64v-64v-64h-64h-64h-64h-64v64v64z" />
<glyph unicode="\" horiz-adv-x="448" d="M0 512v64v64v64h64h64v-64v-64h64v-64v-64h64v-64v-64h64v-64v-64h64v-64v-64v-64h-64h-64v64v64h-64v64v64h-64v64v64h-64v64v64h-64z" />
<glyph unicode="]" horiz-adv-x="320" d="M0 0h64h64v64v64v64v64v64v64v64v64h-64h-64v64v64h64h64h64h64v-64v-64v-64v-64v-64v-64v-64v-64v-64v-64v-64v-64h-64h-64h-64h-64v64v64z" />
<glyph unicode="^" horiz-adv-x="448" d="M64 448v64v64h64v64h64h64h64v-64h64v-64v-64h-64h-64v64h-64v-64h-64h-64z" />
<glyph unicode="_" horiz-adv-x="320" d="M0 -64h64h64h64h64v-64v-64h-64h-64h-64h-64v64v64z" />
<glyph unicode="`" horiz-adv-x="256" d="M0 512v64v64h64h64v-64h64v-64v-64h-64h-64v64h-64z" />
<glyph unicode="a" horiz-adv-x="576" d="M0 64v64v64v64v64v64h64v64h64h64h64h64h64h64v-64v-64v-64v-64v-64h64v-64v-64h-64h-64v64h-64v-64h-64h-64h-64h-64v64h-64zM128 128h64h64h64v64v64v64h-64h-64h-64v-64v-64v-64z" />
<glyph unicode="b" d="M0 0v64v64v64v64v64v64v64v64v64h64h64v-64v-64h64h64h64h64v-64h64v-64v-64v-64v-64v-64h-64v-64h-64h-64h-64h-64h-64h-64zM128 128h64h64h64v64v64v64h-64h-64h-64v-64v-64v-64z" />
<glyph unicode="c" horiz-adv-x="448" d="M0 64v64v64v64v64v64h64v64h64h64h64h64v-64h64v-64v-64h-64h-64v64h-64h-64v-64v-64v-64h64h64v64h64h64v-64v-64h-64v-64h-64h-64h-64h-64v64h-64z" />
<glyph unicode="d" d="M0 64v64v64v64v64v64h64v64h64h64h64h64v64v64h64h64v-64v-64v-64v-64v-64v-64v-64v-64v-64h-64h-64h-64h-64h-64h-64v64h-64zM128 128h64h64h64v64v64v64h-64h-64h-64v-64v-64v-64z" />
<glyph unicode="e" d="M0 64v64v64v64v64v64h64v64h64h64h64h64h64v-64h64v-64v-64v-64h-64h-64h-64h-64h-64v-64h64h64h64h64h64v-64v-64h-64h-64h-64h-64h-64h-64v64h-64zM128 256h64h64h64v64h-64h-64h-64v-64z" />
<glyph unicode="f" horiz-adv-x="320" d="M0 320v64v64h64v64v64h64v64h64h64v-64v-64h-64v-64h64v-64v-64h-64v-64v-64v-64v-64v-64h-64h-64v64v64v64v64v64h-64z" />
<glyph unicode="g" d="M0 -64h64h64h64h64h64v64h-64h-64h-64h-64v64h-64v64v64v64v64v64h64v64h64h64h64h64h64h64v-64v-64v-64v-64v-64v-64v-64v-64v-64h-64v-64h-64h-64h-64h-64h-64h-64v64v64zM128 128h64h64h64v64v64v64h-64h-64h-64v-64v-64v-64z" />
<glyph unicode="h" d="M0 0v64v64v64v64v64v64v64v64v64h64h64v-64v-64h64h64h64h64v-64h64v-64v-64v-64v-64v-64v-64h-64h-64v64v64v64v64v64h-64h-64h-64v-64v-64v-64v-64v-64h-64h-64z" />
<glyph unicode="i" horiz-adv-x="192" d="M0 0v64v64v64v64v64v64v64h64h64v-64v-64v-64v-64v-64v-64v-64h-64h-64zM0 512v64v64h64h64v-64v-64h-64h-64z" />
<glyph unicode="j" horiz-adv-x="256" d="M0 0h64v64v64v64v64v64v64v64h64h64v-64v-64v-64v-64v-64v-64v-64v-64h-64v-64h-64h-64v64v64zM64 512v64v64h64h64v-64v-64h-64h-64z" />
<glyph unicode="k" horiz-adv-x="448" d="M0 0v64v64v64v64v64v64v64v64h64h64v-64v-64v-64h64v64h64v64h64h64v-64v-64h-64v-64h-64v-64h64v-64h64v-64v-64h-64h-64v64h-64v64h-64v-64v-64h-64h-64z" />
<glyph unicode="l" horiz-adv-x="384" d="M0 64v64v64v64v64v64v64v64h64h64v-64v-64v-64v-64v-64v-64h64h64h64v-64v-64h-64h-64h-64h-64v64h-64z" />
<glyph unicode="m" horiz-adv-x="832" d="M0 0v64v64v64v64v64v64v64h64h64h64h64h64v-64h64h64v64h64h64h64h64v-64h64v-64v-64v-64v-64v-64v-64h-64h-64v64v64v64v64v64h-64h-64h-64v-64v-64v-64v-64v-64h-64h-64v64v64v64v64v64h-64h-64h-64v-64v-64v-64v-64v-64h-64h-64z" />
<glyph unicode="n" d="M0 0v64v64v64v64v64v64v64h64h64h64h64h64h64v-64h64v-64v-64v-64v-64v-64v-64h-64h-64v64v64v64v64v64h-64h-64h-64v-64v-64v-64v-64v-64h-64h-64z" />
<glyph unicode="o" d="M0 64v64v64v64v64v64h64v64h64h64h64h64h64v-64h64v-64v-64v-64v-64v-64h-64v-64h-64h-64h-64h-64h-64v64h-64zM128 128h64h64h64v64v64v64h-64h-64h-64v-64v-64v-64z" />
<glyph unicode="p" d="M0 0v64v64v64v64v64v64v64h64h64h64h64h64h64v-64h64v-64v-64v-64v-64v-64h-64v-64h-64h-64h-64h-64v-64h-64h-64v64zM128 128h64h64h64v64v64v64h-64h-64h-64v-64v-64v-64z" />
<glyph unicode="q" d="M0 64v64v64v64v64v64h64v64h64h64h64h64h64h64v-64v-64v-64v-64v-64v-64v-64v-64h-64h-64v64h-64h-64h-64h-64v64h-64zM128 128h64h64h64v64v64v64h-64h-64h-64v-64v-64v-64z" />
<glyph unicode="r" horiz-adv-x="384" d="M0 0v64v64v64v64v64v64h64v64h64h64h64h64v-64v-64h-64h-64h-64v-64v-64v-64v-64v-64h-64h-64z" />
<glyph unicode="s" horiz-adv-x="384" d="M0 0v64v64h64h64h64v64h-64h-64h-64v64v64v64h64v64h64h64h64h64v-64v-64h-64h-64h-64v-64h64h64h64v-64v-64v-64h-64v-64h-64h-64h-64h-64z" />
<glyph unicode="t" horiz-adv-x="448" d="M0 320v64v64h64h64v64v64h64h64v-64v-64h64h64v-64v-64h-64h-64v-64v-64v-64v-64v-64h-64h-64v64v64v64v64v64h-64h-64z" />
<glyph unicode="u" d="M0 64v64v64v64v64v64v64h64h64v-64v-64v-64v-64v-64h64h64h64v64v64v64v64v64h64h64v-64v-64v-64v-64v-64v-64h-64v-64h-64h-64h-64h-64h-64v64h-64z" />
<glyph unicode="v" d="M0 128v64v64v64v64v64h64h64v-64v-64v-64v-64h64v-64h64v64h64v64v64v64v64h64h64v-64v-64v-64v-64v-64h-64v-64h-64v-64h-64h-64h-64v64h-64v64h-64z" />
<glyph unicode="w" horiz-adv-x="832" d="M0 64v64v64v64v64v64v64h64h64v-64v-64v-64v-64v-64h64h64h64v64v64v64v64v64h64h64v-64v-64v-64v-64v-64h64h64h64v64v64v64v64v64h64h64v-64v-64v-64v-64v-64v-64h-64v-64h-64h-64h-64h-64v64h-64h-64v-64h-64h-64h-64h-64v64h-64z" />
<glyph unicode="x" d="M0 0v64v64h64v64h64v64h-64v64h-64v64v64h64h64v-64h64v-64h64v64h64v64h64h64v-64v-64h-64v-64h-64v-64h64v-64h64v-64v-64h-64h-64v64h-64v64h-64v-64h-64v-64h-64h-64z" />
<glyph unicode="y" d="M0 -64h64h64h64h64h64v64h-64h-64h-64h-64v64h-64v64v64v64v64v64v64h64h64v-64v-64v-64v-64v-64h64h64h64v64v64v64v64v64h64h64v-64v-64v-64v-64v-64v-64v-64v-64v-64h-64v-64h-64h-64h-64h-64h-64h-64v64v64z" />
<glyph unicode="z" horiz-adv-x="448" d="M0 0v64v64h64v64h64v64h64v64h-64h-64h-64v64v64h64h64h64h64h64v-64h64v-64v-64h-64v-64h-64v-64h64h64v-64v-64h-64h-64h-64h-64h-64h-64z" />
<glyph unicode="{" horiz-adv-x="384" d="M0 320v64v64h64v64v64v64h64v64h64h64h64v-64v-64h-64h-64v-64v-64h-64v-64h64v-64v-64v-64v-64v-64v-64h64h64v-64v-64h-64h-64h-64v64h-64v64v64v64v64v64v64h-64z" />
<glyph unicode="|" horiz-adv-x="192" d="M0 0v64v64v64v64v64v64v64v64v64v64v64h64h64v-64v-64v-64v-64v-64v-64v-64v-64v-64v-64v-64v-64v-64h-64h-64v64v64z" />
<glyph unicode="}" horiz-adv-x="384" d="M0 0h64h64v64v64v64v64v64v64h64v64h-64v64v64h-64h-64v64v64h64h64h64v-64h64v-64v-64v-64h64v-64v-64h-64v-64v-64v-64v-64v-64v-64h-64v-64h-64h-64h-64v64v64z" />
<glyph unicode="~" horiz-adv-x="448" d="M0 256v64v64h64v64h64h64v-64h64v64h64h64v-64v-64h-64v-64h-64h-64v64h-64v-64h-64h-64z" />
<glyph unicode="&#xa1;" horiz-adv-x="192" d="M0 0v64v64v64v64v64v64v64v64h64h64v-64v-64v-64v-64v-64v-64v-64v-64v-64h-64h-64v64zM0 576v64v64h64h64v-64v-64h-64h-64z" />
<glyph unicode="&#xa6;" horiz-adv-x="192" d="M0 0v64v64v64v64v64v64h64h64v-64v-64v-64v-64v-64v-64v-64h-64h-64v64zM0 448v64v64v64v64h64h64v-64v-64v-64v-64h-64h-64z" />
<glyph unicode="&#xa8;" horiz-adv-x="384" d="M0 512v64v64h64h64v-64v-64h-64h-64zM192 512v64v64h64h64v-64v-64h-64h-64z" />
<glyph unicode="&#xa9;" horiz-adv-x="768" d="M0 128v64v64v64v64v64v64v64v64h64v64h64v64h64h64h64h64h64h64h64v-64h64v-64h64v-64v-64v-64v-64v-64v-64v-64v-64h-64v-64h-64v-64h-64h-64h-64h-64h-64h-64h-64v64h-64v64h-64zM128 192h64v-64h64h64h64h64h64v64h64v64v64v64v64v64v64h-64v64h-64h-64h-64h-64h-64 v-64h-64v-64v-64v-64v-64v-64v-64zM192 256v64v64v64v64h64v-64v-64v-64v-64h-64zM256 192v64h64h64h64v-64h-64h-64h-64zM256 512v64h64h64h64v-64h-64h-64h-64zM448 256v64h64v-64h-64zM448 448v64h64v-64h-64z" />
<glyph unicode="&#xad;" horiz-adv-x="256" d="M0 192v64v64h64h64h64v-64v-64h-64h-64h-64z" />
<glyph unicode="&#x2000;" horiz-adv-x="704" />
<glyph unicode="&#x2001;" horiz-adv-x="1409" />
<glyph unicode="&#x2002;" horiz-adv-x="704" />
<glyph unicode="&#x2003;" horiz-adv-x="1409" />
<glyph unicode="&#x2004;" horiz-adv-x="469" />
<glyph unicode="&#x2005;" horiz-adv-x="352" />
<glyph unicode="&#x2006;" horiz-adv-x="234" />
<glyph unicode="&#x2007;" horiz-adv-x="234" />
<glyph unicode="&#x2008;" horiz-adv-x="176" />
<glyph unicode="&#x2009;" horiz-adv-x="281" />
<glyph unicode="&#x200a;" horiz-adv-x="78" />
<glyph unicode="&#x2010;" horiz-adv-x="256" d="M0 192v64v64h64h64h64v-64v-64h-64h-64h-64z" />
<glyph unicode="&#x2011;" horiz-adv-x="256" d="M0 192v64v64h64h64h64v-64v-64h-64h-64h-64z" />
<glyph unicode="&#x2012;" horiz-adv-x="256" d="M0 192v64v64h64h64h64v-64v-64h-64h-64h-64z" />
<glyph unicode="&#x2013;" horiz-adv-x="1088" d="M0 192v64v64h341h342h341v-64v-64h-341h-342h-341z" />
<glyph unicode="&#x2014;" horiz-adv-x="2112" d="M0 192v64v64h683h682h683v-64v-64h-683h-682h-683z" />
<glyph unicode="&#x202f;" horiz-adv-x="281" />
<glyph unicode="&#x205f;" horiz-adv-x="352" />
<glyph unicode="&#xe000;" horiz-adv-x="450" d="M0 0v450h450v-450h-450z" />
</font>
</defs>
</svg>
